<?xml version="1.0" encoding="UTF-8"?>
<svg width="47px" height="25px" viewBox="0 0 47 25" version="1.1" xmlns="http://www.w3.org/2000/svg" xmlns:xlink="http://www.w3.org/1999/xlink">
    <title>D8399896-0848-4C72-9D88-0A651FF98F02@0.5x</title>
    <defs>
        <path d="M30.4599562,0.00048 L1.9745263,0.57648 C0.860224781,0.59904 -0.0237808753,1.45776 0.00048797161,2.4936 L0.00048797161,2.4936 C0.02424046,3.5304 0.948005716,4.35168 2.06230724,4.32864 L2.06230724,4.32864 L30.5482535,3.75312 C31.662555,3.73104 32.547077,2.8728 32.5228082,1.836 L32.5228082,1.836 C32.4985394,0.8136 31.5990429,0 30.5038467,0 L30.5038467,0 C30.4893886,0 30.4749306,0 30.4599562,0.00048 L30.4599562,0.00048 Z" id="path-1"></path>
        <path d="M16.6024278,0.00104795454 L0.678046668,0.452192384 C0.438224732,0.458480111 0.210675133,0.513497724 0,0.60257386 L0,0.60257386 C0.770089202,0.884473631 1.33154866,1.66519976 1.34637773,2.6025951 L1.34637773,2.6025951 C1.36171816,3.53894248 0.827360112,4.35005929 0.0674978583,4.67544918 L0.0674978583,4.67544918 C0.281752424,4.75299781 0.510836064,4.79439202 0.749635305,4.78758031 L0.749635305,4.78758031 L16.6755504,4.33748384 C17.7759701,4.30656918 18.6513968,3.30996441 18.6314543,2.1116284 L18.6314543,2.1116284 C18.6120231,0.933727494 17.7314828,0 16.6540738,0 L16.6540738,0 C16.636688,0 16.6198136,0.00052397727 16.6024278,0.00104795454 L16.6024278,0.00104795454 Z" id="path-3"></path>
        <path d="M39.7800684,0.000519646879 L1.96127435,0.834033241 C0.854462876,0.857936997 -0.0241136073,1.78758526 0.000504998192,2.91002252 L0.000504998192,2.91002252 C0.0240978285,4.03142049 0.941653771,4.92105594 2.04846524,4.89663254 L2.04846524,4.89663254 L39.8672593,4.06311895 C40.9740707,4.0381759 41.8531601,3.10956692 41.8290544,1.98712966 L41.8290544,1.98712966 C41.8054616,0.88080146 40.9125242,0 39.8246896,0 L39.8246896,0 C39.8098159,0 39.7949421,0 39.7800684,0.000519646879 L39.7800684,0.000519646879 Z" id="path-5"></path>
        <path d="M25.0530294,0 L1.9761854,0.509830115 C0.860947585,0.533933069 -0.0238008571,1.4713284 0.000488381629,2.60207135 L0.000488381629,2.60207135 C0.0247776204,3.73333828 0.948802279,4.62986339 2.06455689,4.60576043 L2.06455689,4.60576043 L25.1408841,4.09645452 C26.2561219,4.07235157 27.1408704,3.13548021 27.1165811,2.00368931 L27.1165811,2.00368931 C27.0933255,0.887617726 26.1930733,-0.000523745541 25.0969568,0 L25.0969568,0 C25.0824866,0 25.0674996,0 25.0530294,0 L25.0530294,0 Z" id="path-7"></path>
        <path d="M0,0.94224 C0,1.46208 0.422520154,1.884 0.943099594,1.884 L0.943099594,1.884 C1.46367903,1.884 1.88619919,1.46208 1.88619919,0.94224 L1.88619919,0.94224 C1.88619919,0.42288 1.46367903,0 0.943099594,0 L0.943099594,0 C0.422520154,0 0,0.42288 0,0.94224 L0,0.94224 Z" id="path-9"></path>
        <path d="M0,0.950021053 C0,1.47490526 0.425256673,1.90004211 0.951372397,1.90004211 L0.951372397,1.90004211 C1.47700322,1.90004211 1.9022599,1.47490526 1.9022599,0.950021053 L1.9022599,0.950021053 C1.9022599,0.425621053 1.47700322,0 0.951372397,0 L0.951372397,0 C0.425256673,0 0,0.425621053 0,0.950021053 L0,0.950021053 Z" id="path-11"></path>
        <polygon id="path-13" points="1.04107877 0 1.04107877 1.08027368 0 1.08027368 0 1.26088421 1.04107877 1.26088421 1.04107877 2.35084211 1.23988747 2.35084211 1.23988747 1.26088421 2.28048134 1.26088421 2.28048134 1.08027368 1.23988747 1.08027368 1.23988747 0"></polygon>
        <polygon id="path-15" points="1.04107877 0 1.04107877 1.08075789 0 1.08075789 0 1.26088421 1.04107877 1.26088421 1.04107877 2.35084211 1.23988747 2.35084211 1.23988747 1.26088421 2.28096624 1.26088421 2.28096624 1.08075789 1.23988747 1.08075789 1.23988747 0"></polygon>
    </defs>
    <g id="Page-1" stroke="none" stroke-width="1" fill="none" fill-rule="evenodd">
        <g id="8" transform="translate(-25.000000, -397.000000)">
            <g id="Group-11" transform="translate(16.000000, 381.000000)">
                <g id="Group-8" transform="translate(9.000164, 17.000000)">
                    <g id="Group-5-Copy" transform="translate(0.000000, 0.021053)">
                        <g id="Group-2-Copy" transform="translate(0.000000, 6.659107)">
                            <g id="Group-9" transform="translate(12.738376, 10.482240)">
                                <mask id="mask-2" fill="white">
                                    <use xlink:href="#path-1"></use>
                                </mask>
                                <g id="Clip-8"></g>
                            </g>
                            <g id="Group" transform="translate(23.499836, 8.866016) rotate(1.000000) translate(-23.499836, -8.866016) translate(0.111672, 2.263227)">
                                <g id="Group-3" transform="translate(10.386003, 4.210677)">
                                    <mask id="mask-4" fill="white">
                                        <use xlink:href="#path-3"></use>
                                    </mask>
                                    <g id="Clip-2"></g>
                                </g>
                                <g id="Group-6" transform="translate(4.946789, 0.000000)">
                                    <mask id="mask-6" fill="white">
                                        <use xlink:href="#path-5"></use>
                                    </mask>
                                    <g id="Clip-5"></g>
                                </g>
                                <g id="Group-12" transform="translate(0.000000, 8.599343)">
                                    <mask id="mask-8" fill="white">
                                        <use xlink:href="#path-7"></use>
                                    </mask>
                                    <g id="Clip-11"></g>
                                </g>
                            </g>
                            <g id="Group-17" transform="translate(36.507563, 0.000000)">
                                <mask id="mask-10" fill="white">
                                    <use xlink:href="#path-9"></use>
                                </mask>
                                <g id="Clip-16"></g>
                            </g>
                        </g>
                        <g id="Group-47" transform="translate(1.490869, 0.000000)">
                            <polygon id="Fill-16" fill="#FFFFFF" points="37.474786 4.35789474 37.474786 5.4702029 36.3674464 5.4702029 36.3674464 5.65666782 37.474786 5.65666782 37.474786 6.77894737 37.6856342 6.77894737 37.6856342 5.65666782 38.7919428 5.65666782 38.7919428 5.4702029 37.6856342 5.4702029 37.6856342 4.35789474"></polygon>
                            <polygon id="Fill-17" fill="#FFFFFF" points="32.6255578 4.35789474 32.6255578 5.4702029 31.5184535 5.4702029 31.5184535 5.65666782 32.6255578 5.65666782 32.6255578 6.77894737 32.8368765 6.77894737 32.8368765 5.65666782 33.94295 5.65666782 33.94295 5.4702029 32.8368765 5.4702029 32.8368765 4.35789474"></polygon>
                            <path d="M37.337245,0.968421053 C37.337245,1.50297763 36.9027633,1.93684211 36.3674464,1.93684211 C35.8321294,1.93684211 35.3976478,1.50297763 35.3976478,0.968421053 C35.3976478,0.433864478 35.8321294,0 36.3674464,0 C36.9027633,0 37.337245,0.433864478 37.337245,0.968421053 Z" id="Stroke-21" stroke="#FFFFFF" stroke-width="0.5"></path>
                            <g id="Group-25" transform="translate(7.444174, 10.093853)">
                                <mask id="mask-12" fill="white">
                                    <use xlink:href="#path-11"></use>
                                </mask>
                                <g id="Clip-24"></g>
                            </g>
                            <g id="Group-30" transform="translate(4.802443, 21.336737)">
                                <mask id="mask-14" fill="white">
                                    <use xlink:href="#path-13"></use>
                                </mask>
                                <g id="Clip-29"></g>
                                <polygon id="Fill-28" fill="#FFFFFF" mask="url(#mask-14)" points="-3.17172622 5.51806316 5.45172266 5.51806316 5.45172266 -3.16673684 -3.17172622 -3.16673684"></polygon>
                            </g>
                            <path d="M1.93959714,21.7894737 C1.93959714,22.3240303 1.50511552,22.7578947 0.96979857,22.7578947 C0.434481622,22.7578947 0,22.3240303 0,21.7894737 C0,21.2549171 0.434481622,20.8210526 0.96979857,20.8210526 C1.50511552,20.8210526 1.93959714,21.2549171 1.93959714,21.7894737 Z" id="Stroke-31" stroke="#FFFFFF" stroke-width="0.5"></path>
                            <g id="Group-35" transform="translate(33.841606, 18.476505)">
                                <mask id="mask-16" fill="white">
                                    <use xlink:href="#path-15"></use>
                                </mask>
                                <g id="Clip-34"></g>
                                <polygon id="Fill-33" fill="#FFFFFF" mask="url(#mask-16)" points="-3.17124132 5.51806316 5.45220756 5.51806316 5.45220756 -3.16673684 -3.17124132 -3.16673684"></polygon>
                            </g>
                        </g>
                    </g>
                    <g id="salad" transform="translate(11.431304, 0.000000)" fill="#FFFFFF" fill-rule="nonzero">
                        <path d="M15.6221999,23.200031 L8.41194656,23.200031 C4.34976523,23.200031 1.02062711,20.0058268 0.811534925,16.0004974 L23.2225646,16.0004974 C23.0135193,20.0058268 19.6843812,23.200031 15.6221999,23.200031 Z" id="Path-Copy-2"></path>
                        <path d="M19.3943562,6.1683691 C19.2429592,6.31874415 19.0422701,6.4015723 18.827967,6.4015723 C18.8275445,6.4015723 18.827169,6.4015723 18.8267465,6.4015723 L17.6250532,6.4015723 C17.4035207,6.4015723 17.2244732,6.58077548 17.2244732,6.80155681 C17.2244732,7.02233813 17.4035207,7.20154131 17.6250532,7.20154131 L17.6691344,7.20276007 C18.1105565,7.2263382 18.4502491,7.60391645 18.4278095,8.02869784 C18.3869675,8.46946361 18.0124418,8.81066685 17.5569833,8.80143247 L15.6222468,8.80143247 C15.4007143,8.80143247 15.2216668,8.98063565 15.2216668,9.20141698 C15.2216668,9.4221983 15.4007143,9.60140148 15.6222468,9.60140148 C16.0640914,9.60140148 16.4234069,9.96018285 16.4234069,10.4013705 C16.4234069,10.8425581 16.0640914,11.2013395 15.6222468,11.2013395 L9.21310668,11.2013395 L9.21310668,5.66240018 C9.20550162,5.21961878 9.54599232,4.84086866 9.97178175,4.80083739 L10.0154404,4.79961864 C10.4564869,4.79999364 10.8149575,5.15840001 10.81538,5.59836891 L10.81538,5.60118141 C10.81538,5.82196273 10.9944275,6.00116592 11.2155375,6.00116592 C11.21596,6.00116592 11.21596,6.00116592 11.21596,6.00116592 C11.4370701,6.00116592 11.6161176,5.82238461 11.6165401,5.60160329 L11.6165401,5.60122828 L11.6165401,3.66252452 C11.608935,3.21974312 11.9494257,2.840993 12.3752152,2.80096173 L12.4184983,2.79974298 C12.8599203,2.80053986 13.2184378,3.15889935 13.2188603,3.59929012 L13.2188603,3.60168075 C13.2188603,3.82246207 13.3979078,4.00166526 13.6190179,4.00166526 C13.6194404,4.00166526 13.6194404,4.00166526 13.6194404,4.00166526 C13.8405505,4.00166526 14.019598,3.82288395 14.0200205,3.60210262 L14.0200205,3.60168075 L14.0200205,1.60185196 L14.021241,1.55746132 C14.0444787,1.11707055 14.4137935,0.777929813 14.848033,0.799914196 C15.2902531,0.841117334 15.6303213,1.21986746 15.6219182,1.67024261 L15.6219182,2.00221147 C15.6219182,2.16421152 15.7200798,2.3106022 15.8706788,2.37219597 C16.0201041,2.43378974 16.1939407,2.3985866 16.307688,2.28261781 L17.3944134,1.18147682 C17.4240356,1.15227369 17.4545027,1.1246643 17.4861435,1.09869554 C18.0405148,0.643539144 18.8620959,0.722711045 19.3139397,1.2698831 C19.7417478,1.81063328 19.6924557,2.58177416 19.1965777,3.06697745 L18.1430892,4.11889967 C18.0285439,4.23327471 17.9940864,4.40525914 18.0561474,4.55488419 C18.1178329,4.70408736 18.2644415,4.80168115 18.4262603,4.80168115 L18.7587234,4.80168115 C18.7671266,4.80168115 18.7731355,4.80168115 18.7799425,4.80168115 C19.2173742,4.80168115 19.5890832,5.13847813 19.6283291,5.55922827 L19.6295497,5.60324391 C19.6290802,5.81680648 19.5458001,6.01757217 19.3943562,6.1683691 Z" id="Path-Copy"></path>
                        <path d="M23.6335664,15.2005752 L0.400580061,15.2005752 C0.179470007,15.2005752 0,15.3793565 0,15.6005597 C0,20.2318581 3.77337686,24 8.41194656,24 L15.6221999,24 C20.260394,24 24.0341464,20.2318581 24.0341464,15.6005597 C24.0341464,15.3793565 23.8550989,15.2005752 23.6335664,15.2005752 Z M15.6221999,23.200031 L8.41194656,23.200031 C4.34976523,23.200031 1.02062711,20.0058268 0.811534925,16.0004974 L23.2225646,16.0004974 C23.0135193,20.0058268 19.6843812,23.200031 15.6221999,23.200031 Z" id="Shape"></path>
                        <path d="M20.4306628,5.60361891 C20.4306628,5.57441578 20.4302403,5.54521264 20.4274706,5.500822 C20.3657851,4.83768116 19.909153,4.29289973 19.3062877,4.08852466 L19.7597276,3.63575888 C20.5460532,2.86663363 20.6249674,1.6363051 19.9367565,0.767570435 C19.199723,-0.126757986 17.8714196,-0.253976778 16.9761351,0.481585965 C16.925247,0.523585979 16.8760019,0.567976619 16.8267098,0.617195385 L16.334024,1.11636743 C16.127326,0.517585977 15.5805598,0.0648202023 14.9068079,0.00242955666 C14.019551,-0.0459454593 13.268481,0.633976641 13.220832,1.51471131 C13.2192359,1.54391444 13.2188134,1.57311758 13.2188134,1.60189884 L13.2188134,2.21507091 C12.9832913,2.07866462 12.710495,2.00028959 12.4192963,1.99986772 C12.3904722,1.99986772 12.3608031,2.00066459 12.3163464,2.00305522 C11.4599322,2.082649 10.8010149,2.81741486 10.8154269,3.6693214 L10.8154269,4.21330595 C10.5750695,4.07450903 10.3010996,4.00011838 10.0159099,3.9996965 C9.98708576,3.9996965 9.95783914,4.00049338 9.91338241,4.00288401 C9.05654574,4.08247778 8.39762839,4.81724365 8.41204045,5.66919706 L8.41204045,11.6008084 C8.41204045,11.8220116 8.59151045,12.0007929 8.81262051,12.0007929 L15.6222938,12.0007929 C16.5059359,12.0007929 17.2245671,11.2832302 17.2241446,10.4016986 C17.2241446,10.110511 17.1460284,9.83732344 17.0090434,9.60177648 L17.5502232,9.60177648 C18.4106277,9.62535462 19.1464876,8.95780752 19.2269979,8.08705723 C19.2442267,7.76146337 19.1624958,7.45349452 19.0079065,7.19193194 C19.3675976,7.15194755 19.7004833,6.993135 19.9600411,6.73475991 C20.2627882,6.43316606 20.4302403,6.0315878 20.4306628,5.60361891 Z M19.3943562,6.1683691 C19.2429592,6.31874415 19.0422701,6.4015723 18.827967,6.4015723 C18.8275445,6.4015723 18.827169,6.4015723 18.8267465,6.4015723 L17.6250532,6.4015723 C17.4035207,6.4015723 17.2244732,6.58077548 17.2244732,6.80155681 C17.2244732,7.02233813 17.4035207,7.20154131 17.6250532,7.20154131 L17.6691344,7.20276007 C18.1105565,7.2263382 18.4502491,7.60391645 18.4278095,8.02869784 C18.3869675,8.46946361 18.0124418,8.81066685 17.5569833,8.80143247 L15.6222468,8.80143247 C15.4007143,8.80143247 15.2216668,8.98063565 15.2216668,9.20141698 C15.2216668,9.4221983 15.4007143,9.60140148 15.6222468,9.60140148 C16.0640914,9.60140148 16.4234069,9.96018285 16.4234069,10.4013705 C16.4234069,10.8425581 16.0640914,11.2013395 15.6222468,11.2013395 L9.21310668,11.2013395 L9.21310668,5.66240018 C9.20550162,5.21961878 9.54599232,4.84086866 9.97178175,4.80083739 L10.0154404,4.79961864 C10.4564869,4.79999364 10.8149575,5.15840001 10.81538,5.59836891 L10.81538,5.60118141 C10.81538,5.82196273 10.9944275,6.00116592 11.2155375,6.00116592 C11.21596,6.00116592 11.21596,6.00116592 11.21596,6.00116592 C11.4370701,6.00116592 11.6161176,5.82238461 11.6165401,5.60160329 L11.6165401,5.60122828 L11.6165401,3.66252452 C11.608935,3.21974312 11.9494257,2.840993 12.3752152,2.80096173 L12.4184983,2.79974298 C12.8599203,2.80053986 13.2184378,3.15889935 13.2188603,3.59929012 L13.2188603,3.60168075 C13.2188603,3.82246207 13.3979078,4.00166526 13.6190179,4.00166526 C13.6194404,4.00166526 13.6194404,4.00166526 13.6194404,4.00166526 C13.8405505,4.00166526 14.019598,3.82288395 14.0200205,3.60210262 L14.0200205,3.60168075 L14.0200205,1.60185196 L14.021241,1.55746132 C14.0444787,1.11707055 14.4137935,0.777929813 14.848033,0.799914196 C15.2902531,0.841117334 15.6303213,1.21986746 15.6219182,1.67024261 L15.6219182,2.00221147 C15.6219182,2.16421152 15.7200798,2.3106022 15.8706788,2.37219597 C16.0201041,2.43378974 16.1939407,2.3985866 16.307688,2.28261781 L17.3944134,1.18147682 C17.4240356,1.15227369 17.4545027,1.1246643 17.4861435,1.09869554 C18.0405148,0.643539144 18.8620959,0.722711045 19.3139397,1.2698831 C19.7417478,1.81063328 19.6924557,2.58177416 19.1965777,3.06697745 L18.1430892,4.11889967 C18.0285439,4.23327471 17.9940864,4.40525914 18.0561474,4.55488419 C18.1178329,4.70408736 18.2644415,4.80168115 18.4262603,4.80168115 L18.7587234,4.80168115 C18.7671266,4.80168115 18.7731355,4.80168115 18.7799425,4.80168115 C19.2173742,4.80168115 19.5890832,5.13847813 19.6283291,5.55922827 L19.6295497,5.60324391 C19.6290802,5.81680648 19.5458001,6.01757217 19.3943562,6.1683691 Z" id="Shape"></path>
                        <polygon id="Rectangle" transform="translate(12.017544, 8.400091) rotate(-45.000000) translate(-12.017544, -8.400091) " points="4.09243222 7.99394016 19.9420608 8.00573096 19.9426563 8.80624095 4.09302773 8.79445014"></polygon>
                        <rect id="Rectangle" x="14.8202886" y="3.20375874" width="1" height="1.99987566"></rect>
                        <rect id="Rectangle" x="12.4168552" y="5.2036344" width="1" height="2.39986017"></rect>
                        <rect id="Rectangle" x="10.0134218" y="7.19947881" width="1" height="2.7997978"></rect>
                        <rect id="Rectangle" x="15.2208218" y="4.8036499" width="2.00285336" height="1"></rect>
                        <rect id="Rectangle" x="12.8174353" y="7.19947881" width="2.40343342" height="1"></rect>
                        <rect id="Rectangle" x="10.4140019" y="9.59933898" width="2.80396654" height="1"></rect>
                        <path d="M7.47661817,1.85024267 C7.47624261,1.84944579 7.4753976,1.84864892 7.47502205,1.84785204 C6.90980654,1.00269551 5.76097315,0.773101687 4.91498074,1.33747687 C4.88855081,1.35468 4.86249644,1.37305501 4.83287427,1.39508627 L4.68865981,1.50468005 L4.55007873,1.40507065 C3.81703553,0.722336045 2.6645874,0.749945429 1.96679975,1.47308629 C1.62513542,1.82666454 1.44167511,2.29222719 1.45087629,2.78380548 C1.46007747,3.27538377 1.65996847,3.73372767 2.01369761,4.07450903 C2.11664758,4.17369656 2.23119291,4.26088409 2.35456387,4.33368099 L2.69186233,4.5968842 L2.69186233,4.80168115 C2.69186233,5.90441589 3.59033904,6.80155681 4.69471569,6.80155681 C5.79909234,6.80155681 6.69756905,5.90399401 6.69714655,4.80130615 L6.69714655,4.5965092 L7.05167375,4.32013411 C7.818705,3.73893079 8.004982,2.65382106 7.47661817,1.85024267 Z M6.56293134,3.68652453 L6.05020013,4.08650903 C5.95325909,4.16211843 5.89636199,4.2785091 5.89636199,4.40169664 L5.89636199,4.80168115 C5.89636199,5.46322824 5.35720085,6.00158779 4.69466875,6.00158779 C4.03213665,6.00158779 3.49297551,5.46322824 3.49297551,4.80168115 L3.49297551,4.40169664 C3.49297551,4.2785091 3.4365009,4.16211843 3.33913737,4.08650903 L2.82640616,3.68652453 C2.81119604,3.67452452 2.79476535,3.66374327 2.77795911,3.65413389 C2.70265964,3.611337 2.6329466,3.55935261 2.57046305,3.49893071 C2.3701965,3.30613378 2.25720034,3.04696181 2.25198947,2.76936797 C2.24677859,2.49177413 2.35052662,2.22861779 2.54361062,2.0286021 C2.74749193,1.81743016 3.02028822,1.71102387 3.29346007,1.71102387 C3.55381598,1.71102387 3.8145944,1.8073989 4.01650403,2.00221147 C4.03011802,2.01500835 4.04453008,2.02743023 4.0601627,2.03858648 L4.46074276,2.32658658 C4.60336109,2.42938348 4.79682065,2.42699286 4.9370448,2.32058657 L5.35926642,2.00343022 C5.59159628,1.84822704 5.869979,1.79385202 6.14399586,1.84785204 C6.4171677,1.90222706 6.65311232,2.05944586 6.80812408,2.29063344 C7.10533167,2.74419609 6.99956501,3.35535254 6.56293134,3.68652453 Z" id="Shape" stroke="#661A74" stroke-width="0.2"></path>
                        <path d="M15.6221999,12.800715 C14.7385577,12.800715 14.0199266,13.5182778 14.0199266,14.4006062 L14.8210867,14.4006062 C14.8210867,13.9594186 15.1804023,13.6006372 15.6221999,13.6006372 C16.0640444,13.6006372 16.42336,13.9594186 16.42336,14.4006062 L17.2244732,14.4006062 C17.2244732,13.5182778 16.505842,12.800715 15.6221999,12.800715 Z" id="Path"></path>
                        <path d="M4.80686684,9.20094823 L4.75640117,9.20094823 C4.57772923,8.51179175 3.95003018,8.00104158 3.20459354,8.00104158 C2.45915691,8.00104158 1.83103536,8.51179175 1.65278591,9.20094823 L1.60232024,9.20094823 C0.718678091,9.20094823 4.69448078e-05,9.91851096 4.69448078e-05,10.8008394 C4.69448078e-05,11.6831678 0.718678091,12.4007305 1.60232024,12.4007305 L4.80686684,12.4007305 C5.690509,12.4007305 6.40914014,11.6831678 6.40914014,10.8008394 C6.40914014,9.91851096 5.690509,9.20094823 4.80686684,9.20094823 Z M4.80686684,11.6011834 L1.6022733,11.6011834 C1.16042875,11.6011834 0.801113177,11.242402 0.801113177,10.8012613 C0.801113177,10.3600736 1.16042875,10.0012922 1.6022733,10.0012922 L2.00285336,10.0012922 C2.22396341,10.0012922 2.40343342,9.82208906 2.40343342,9.60130773 C2.40343342,9.16012009 2.76274899,8.80138559 3.20459354,8.80138559 C3.64643809,8.80138559 4.00575367,9.16016696 4.00575367,9.60130773 C4.00575367,9.82208906 4.18522367,10.0012922 4.40633373,10.0012922 L4.80691379,10.0012922 C5.24875834,10.0012922 5.60807391,10.3600736 5.60807391,10.8012613 C5.60798002,11.2424489 5.24866445,11.6011834 4.80686684,11.6011834 Z" id="Shape" stroke="#661A74" stroke-width="0.2"></path>
                        <path d="M4.00570672,11.6008084 L2.40343342,11.6008084 C2.18232337,11.6008084 2.00285336,11.7800116 2.00285336,12.0007929 L2.00285336,13.6006841 C2.00285336,13.8218873 2.18232337,14.0006686 2.40343342,14.0006686 L4.00570672,14.0006686 C4.22681677,14.0006686 4.40628678,13.8218873 4.40628678,13.6006841 L4.40628678,12.0007929 C4.40628678,11.7800116 4.22681677,11.6008084 4.00570672,11.6008084 Z M3.60512666,13.2006996 L2.80401348,13.2006996 L2.80401348,12.4007774 L3.6051736,12.4007774 L3.6051736,13.2006996 L3.60512666,13.2006996 Z" id="Shape" stroke="#661A74" stroke-width="0.2"></path>
                        <path d="M21.2301799,10.4009017 C20.5676478,10.4009017 20.0284867,10.9392613 20.0284867,11.6008084 C20.0284867,12.2623555 20.5676478,12.800715 21.2301799,12.800715 C21.892712,12.800715 22.4318731,12.2623555 22.4318731,11.6008084 C22.4318731,10.9392613 21.892712,10.4009017 21.2301799,10.4009017 Z M21.2301799,12.0011679 C21.0090698,12.0011679 20.8295998,11.8215897 20.8295998,11.6011834 C20.8295998,11.3807771 21.0090698,11.2011989 21.2301799,11.2011989 C21.4512899,11.2011989 21.63076,11.3804021 21.63076,11.6011834 C21.63076,11.8220116 21.4512899,12.0011679 21.2301799,12.0011679 Z" id="Shape" stroke="#661A74" stroke-width="0.2"></path>
                        <path d="M21.2301799,8.80101059 C19.6843812,8.80101059 18.4262134,10.0569329 18.4262134,11.6008084 C18.4262134,13.1446839 19.6843812,14.4006062 21.2301799,14.4006062 C22.7759786,14.4006062 24.0341464,13.1446839 24.0341464,11.6008084 C24.0341464,10.0569329 22.7759786,8.80101059 21.2301799,8.80101059 Z M21.2301799,13.6010591 C20.1258032,13.6010591 19.2273265,12.7035431 19.2273265,11.6011834 C19.2273265,10.4984487 20.1258032,9.60130773 21.2301799,9.60130773 C22.3345565,9.60130773 23.2330333,10.4984487 23.2330333,11.6011834 C23.2330333,12.7039181 22.3345565,13.6010591 21.2301799,13.6010591 Z" id="Shape" stroke="#661A74" stroke-width="0.2"></path>
                    </g>
                </g>
            </g>
        </g>
    </g>
</svg>